<mxfile host="app.diagrams.net" modified="2024-05-20T18:25:25.887Z" agent="Mozilla/5.0 (Windows NT 10.0; Win64; x64) AppleWebKit/537.36 (KHTML, like Gecko) Chrome/124.0.0.0 Safari/537.36" etag="v2fp9qbPhdlRLeqQ9JI5" version="24.4.4" type="device">
  <diagram name="‫עמוד-1‬" id="FaVe7VML61vwRCrVTSCd">
    <mxGraphModel dx="880" dy="468" grid="1" gridSize="10" guides="1" tooltips="1" connect="1" arrows="1" fold="1" page="1" pageScale="1" pageWidth="827" pageHeight="1169" math="0" shadow="0">
      <root>
        <mxCell id="0" />
        <mxCell id="1" parent="0" />
        <mxCell id="YB5nBxTz1xqMDJmg3wcx-8" value="" style="edgeStyle=orthogonalEdgeStyle;rounded=0;orthogonalLoop=1;jettySize=auto;html=1;" edge="1" parent="1" source="YB5nBxTz1xqMDJmg3wcx-1" target="YB5nBxTz1xqMDJmg3wcx-7">
          <mxGeometry relative="1" as="geometry" />
        </mxCell>
        <mxCell id="YB5nBxTz1xqMDJmg3wcx-9" style="edgeStyle=orthogonalEdgeStyle;rounded=0;orthogonalLoop=1;jettySize=auto;html=1;entryX=0.5;entryY=0;entryDx=0;entryDy=0;" edge="1" parent="1" source="YB5nBxTz1xqMDJmg3wcx-1" target="YB5nBxTz1xqMDJmg3wcx-4">
          <mxGeometry relative="1" as="geometry" />
        </mxCell>
        <mxCell id="YB5nBxTz1xqMDJmg3wcx-1" value="donations" style="rounded=0;whiteSpace=wrap;html=1;" vertex="1" parent="1">
          <mxGeometry x="170" y="40" width="120" height="60" as="geometry" />
        </mxCell>
        <mxCell id="YB5nBxTz1xqMDJmg3wcx-10" style="edgeStyle=orthogonalEdgeStyle;rounded=0;orthogonalLoop=1;jettySize=auto;html=1;entryX=0.5;entryY=1;entryDx=0;entryDy=0;" edge="1" parent="1" source="YB5nBxTz1xqMDJmg3wcx-2" target="YB5nBxTz1xqMDJmg3wcx-4">
          <mxGeometry relative="1" as="geometry" />
        </mxCell>
        <mxCell id="YB5nBxTz1xqMDJmg3wcx-11" style="edgeStyle=orthogonalEdgeStyle;rounded=0;orthogonalLoop=1;jettySize=auto;html=1;entryX=0;entryY=0.5;entryDx=0;entryDy=0;" edge="1" parent="1" source="YB5nBxTz1xqMDJmg3wcx-2" target="YB5nBxTz1xqMDJmg3wcx-5">
          <mxGeometry relative="1" as="geometry" />
        </mxCell>
        <mxCell id="YB5nBxTz1xqMDJmg3wcx-2" value="freedonation" style="rounded=0;whiteSpace=wrap;html=1;" vertex="1" parent="1">
          <mxGeometry x="170" y="300" width="120" height="60" as="geometry" />
        </mxCell>
        <mxCell id="YB5nBxTz1xqMDJmg3wcx-3" value="usertype" style="rounded=0;whiteSpace=wrap;html=1;" vertex="1" parent="1">
          <mxGeometry y="150" width="120" height="60" as="geometry" />
        </mxCell>
        <mxCell id="YB5nBxTz1xqMDJmg3wcx-16" style="edgeStyle=orthogonalEdgeStyle;rounded=0;orthogonalLoop=1;jettySize=auto;html=1;entryX=1;entryY=0.5;entryDx=0;entryDy=0;" edge="1" parent="1" source="YB5nBxTz1xqMDJmg3wcx-4" target="YB5nBxTz1xqMDJmg3wcx-3">
          <mxGeometry relative="1" as="geometry" />
        </mxCell>
        <mxCell id="YB5nBxTz1xqMDJmg3wcx-4" value="customers" style="rounded=0;whiteSpace=wrap;html=1;" vertex="1" parent="1">
          <mxGeometry x="170" y="150" width="120" height="60" as="geometry" />
        </mxCell>
        <mxCell id="YB5nBxTz1xqMDJmg3wcx-14" style="edgeStyle=orthogonalEdgeStyle;rounded=0;orthogonalLoop=1;jettySize=auto;html=1;" edge="1" parent="1" source="YB5nBxTz1xqMDJmg3wcx-5" target="YB5nBxTz1xqMDJmg3wcx-4">
          <mxGeometry relative="1" as="geometry">
            <mxPoint x="420" y="150" as="targetPoint" />
            <Array as="points">
              <mxPoint x="420" y="220" />
              <mxPoint x="421" y="220" />
              <mxPoint x="421" y="180" />
            </Array>
          </mxGeometry>
        </mxCell>
        <mxCell id="YB5nBxTz1xqMDJmg3wcx-5" value="shuls" style="rounded=0;whiteSpace=wrap;html=1;" vertex="1" parent="1">
          <mxGeometry x="370" y="300" width="120" height="60" as="geometry" />
        </mxCell>
        <mxCell id="YB5nBxTz1xqMDJmg3wcx-6" value="items" style="rounded=0;whiteSpace=wrap;html=1;" vertex="1" parent="1">
          <mxGeometry x="540" y="40" width="120" height="60" as="geometry" />
        </mxCell>
        <mxCell id="YB5nBxTz1xqMDJmg3wcx-12" style="edgeStyle=orthogonalEdgeStyle;rounded=0;orthogonalLoop=1;jettySize=auto;html=1;entryX=0;entryY=0.5;entryDx=0;entryDy=0;" edge="1" parent="1" source="YB5nBxTz1xqMDJmg3wcx-7" target="YB5nBxTz1xqMDJmg3wcx-6">
          <mxGeometry relative="1" as="geometry" />
        </mxCell>
        <mxCell id="YB5nBxTz1xqMDJmg3wcx-15" style="edgeStyle=orthogonalEdgeStyle;rounded=0;orthogonalLoop=1;jettySize=auto;html=1;entryX=0.75;entryY=0;entryDx=0;entryDy=0;" edge="1" parent="1" source="YB5nBxTz1xqMDJmg3wcx-7" target="YB5nBxTz1xqMDJmg3wcx-5">
          <mxGeometry relative="1" as="geometry">
            <Array as="points">
              <mxPoint x="460" y="140" />
              <mxPoint x="460" y="140" />
            </Array>
          </mxGeometry>
        </mxCell>
        <mxCell id="YB5nBxTz1xqMDJmg3wcx-7" value="itemstodonate" style="rounded=0;whiteSpace=wrap;html=1;" vertex="1" parent="1">
          <mxGeometry x="360" y="40" width="120" height="60" as="geometry" />
        </mxCell>
      </root>
    </mxGraphModel>
  </diagram>
</mxfile>
